<svg width="80" height="80" viewBox="0 0 80 80" fill="none" xmlns="http://www.w3.org/2000/svg">
<defs>
<linearGradient id="grad" x1="0%" y1="0%" x2="100%" y2="100%">
  <stop offset="0%" style="stop-color:rgb(55,135,255);stop-opacity:1" />
  <stop offset="100%" style="stop-color:rgb(220,38,127);stop-opacity:1" />
</linearGradient>
</defs>
<path d="M53.2519 23.4181C53.6496 22.1339 54.7673 21.25 56.0909 21.25H68.75C70.5449 21.25 72.0833 22.7884 72.0833 24.5833V30.5594C72.0833 31.9478 70.932 33.0833 69.5417 33.0833C68.1514 33.0833 67.0001 31.9478 67.0001 30.5594V26.0417H58.625C57.2347 26.0417 56.0834 24.9062 56.0834 23.5159C56.0834 23.4799 56.084 23.444 56.0852 23.4082L53.2519 23.4181Z" fill="url(#grad)" stroke="url(#grad)" stroke-width="0.5"/>
<path d="M42.0833 37.9167L45.4167 44.5833L52.9167 45.4167L47.0833 50.8333L48.75 58.3333L42.0833 54.5833L35.4167 58.3333L37.0833 50.8333L31.25 45.4167L38.75 44.5833L42.0833 37.9167Z" stroke="url(#grad)" stroke-width="5" stroke-linejoin="round"/>
<path d="M56.25 35.8333V44.1667" stroke="url(#grad)" stroke-width="5" stroke-linecap="round"/>
<path d="M56.25 52.5V54.1667" stroke="url(#grad)" stroke-width="5" stroke-linecap="round"/>
<path d="M25.7644 14.8644C26.1621 13.5802 27.2798 12.7 28.6034 12.7H68.75C70.5449 12.7 72.0833 14.2384 72.0833 16.0333V20.8333C72.0833 22.2882 70.8715 23.5 69.4167 23.5C67.9618 23.5 66.75 22.2882 66.75 20.8333V17.5H31.125C29.7347 17.5 28.5833 16.3645 28.5833 15C28.5833 14.964 28.584 14.9281 28.5852 14.8923L25.7644 14.8644Z" fill="url(#grad)" stroke="url(#grad)" stroke-width="0.5"/>
<path d="M28.6042 12.5H68.75C71.6458 12.5 74.0001 14.8542 74.0001 17.75V30.4167C74.0001 32.5521 72.2188 34.3333 70.0834 34.3333C67.9479 34.3333 66.1667 32.5521 66.1667 30.4167V26.25H58.625C56.4896 26.25 54.7084 24.4687 54.7084 22.3333C54.7084 22.3333 53.0417 23.4167 28.5834 23.5C26.4479 23.5 24.6667 21.7187 24.6667 19.5833V16C24.6667 14.0729 26.2396 12.5 28.1667 12.5H28.6042Z" stroke="url(#grad)" stroke-width="5" stroke-linecap="round" stroke-linejoin="round"/>
<path d="M11.5833 24.25H69.4166C72.3125 24.25 74.6666 26.6041 74.6666 29.5V64.75C74.6666 67.6459 72.3125 70 69.4166 70H11.5833C8.68746 70 6.33329 67.6459 6.33329 64.75V29.5C6.33329 26.6041 8.68746 24.25 11.5833 24.25Z" stroke="url(#grad)" stroke-width="5" stroke-linejoin="round"/>
</svg>