<svg width="256" height="256" viewBox="0 0 256 256" fill="none" xmlns="http://www.w3.org/2000/svg">
<rect width="256" height="256" rx="60" fill="black"/>
<path d="M196.267 59.7333C225.037 88.5035 225.037 135.496 196.267 164.267C167.496 193.037 120.504 193.037 91.7333 164.267C62.9631 135.496 62.9631 88.5035 91.7333 59.7333C120.504 30.9631 167.496 30.9631 196.267 59.7333Z" fill="url(#paint0_linear_1_2)"/>
<path fill-rule="evenodd" clip-rule="evenodd" d="M92 143.467C89.7909 143.467 88 141.676 88 139.467V116.533C88 114.324 89.7909 112.533 92 112.533H96C98.2091 112.533 100 114.324 100 116.533V139.467C100 141.676 98.2091 143.467 96 143.467H92ZM164 143.467C161.791 143.467 160 141.676 160 139.467V116.533C160 114.324 161.791 112.533 164 112.533H168C170.209 112.533 172 114.324 172 116.533V139.467C172 141.676 170.209 143.467 168 143.467H164ZM100 116.533C100 108.508 106.508 102 114.533 102H145.467C153.492 102 160 108.508 160 116.533V139.467C160 147.492 153.492 154 145.467 154H114.533C106.508 154 100 147.492 100 139.467V116.533ZM114.533 106C108.715 106 104 110.715 104 116.533V139.467C104 145.285 108.715 150 114.533 150H145.467C151.285 150 156 145.285 156 139.467V116.533C156 110.715 151.285 106 145.467 106H114.533Z" fill="white"/>
<path d="M128 108C126.343 108 125 109.343 125 111V145C125 146.657 126.343 148 128 148C129.657 148 131 146.657 131 145V111C131 109.343 129.657 108 128 108Z" fill="white"/>
<defs>
<linearGradient id="paint0_linear_1_2" x1="91.7333" y1="59.7333" x2="196.267" y2="164.267" gradientUnits="userSpaceOnUse">
<stop stop-color="#FFC700"/>
<stop offset="1" stop-color="#E600FF"/>
</linearGradient>
</defs>
</svg>
